<svg width="95" height="32" viewBox="0 0 95 32" fill="none" xmlns="http://www.w3.org/2000/svg">
<path d="M0.1 25V4H9.7C11.62 4 13.27 4.31 14.65 4.93C16.05 5.55 17.13 6.45 17.89 7.63C18.65 8.79 19.03 10.17 19.03 11.77C19.03 13.35 18.65 14.72 17.89 15.88C17.13 17.04 16.05 17.94 14.65 18.58C13.27 19.2 11.62 19.51 9.7 19.51H3.4L6.04 16.93V25H0.1ZM6.04 17.56L3.4 14.83H9.34C10.58 14.83 11.5 14.56 12.1 14.02C12.72 13.48 13.03 12.73 13.03 11.77C13.03 10.79 12.72 10.03 12.1 9.49C11.5 8.95 10.58 8.68 9.34 8.68H3.4L6.04 5.95V17.56ZM28.7891 25.27C27.4691 25.27 26.2791 25.01 25.2191 24.49C24.1791 23.97 23.3591 23.16 22.7591 22.06C22.1791 20.94 21.8891 19.53 21.8891 17.83V8.74H27.5891V16.9C27.5891 18.16 27.8191 19.06 28.2791 19.6C28.7591 20.14 29.4291 20.41 30.2891 20.41C30.8491 20.41 31.3591 20.28 31.8191 20.02C32.2791 19.76 32.6491 19.35 32.9291 18.79C33.2091 18.21 33.3491 17.47 33.3491 16.57V8.74H39.0491V25H33.6191V20.41L34.6691 21.7C34.1091 22.9 33.2991 23.8 32.2391 24.4C31.1791 24.98 30.0291 25.27 28.7891 25.27ZM42.7206 25V8.74H48.1506V13.48L47.3406 12.13C47.8206 10.91 48.6006 10 49.6806 9.4C50.7606 8.78 52.0706 8.47 53.6106 8.47V13.6C53.3506 13.56 53.1206 13.54 52.9206 13.54C52.7406 13.52 52.5406 13.51 52.3206 13.51C51.1606 13.51 50.2206 13.83 49.5006 14.47C48.7806 15.09 48.4206 16.11 48.4206 17.53V25H42.7206ZM55.9628 25V8.74H61.6628V25H55.9628ZM58.8128 6.94C57.7728 6.94 56.9328 6.65 56.2928 6.07C55.6528 5.49 55.3328 4.77 55.3328 3.91C55.3328 3.05 55.6528 2.33 56.2928 1.75C56.9328 1.17 57.7728 0.879999 58.8128 0.879999C59.8528 0.879999 60.6928 1.16 61.3328 1.72C61.9728 2.26 62.2928 2.96 62.2928 3.82C62.2928 4.72 61.9728 5.47 61.3328 6.07C60.7128 6.65 59.8728 6.94 58.8128 6.94ZM66.0271 25V8.92C66.0271 6.96 66.6071 5.4 67.7671 4.24C68.9471 3.06 70.6271 2.47 72.8071 2.47C73.5071 2.47 74.1971 2.54 74.8771 2.68C75.5571 2.82 76.1271 3.03 76.5871 3.31L75.1771 7.33C74.9371 7.19 74.6671 7.08 74.3671 7C74.0671 6.9 73.7671 6.85 73.4671 6.85C72.8671 6.85 72.3971 7.03 72.0571 7.39C71.7371 7.73 71.5771 8.26 71.5771 8.98V10.15L71.7271 12.52V25H66.0271ZM63.6571 13.6V9.34H75.4471V13.6H63.6571ZM80.6376 31.09C79.7776 31.09 78.9076 30.95 78.0276 30.67C77.1676 30.41 76.4676 30.06 75.9276 29.62L77.9076 25.63C78.2476 25.93 78.6376 26.16 79.0776 26.32C79.5376 26.5 79.9876 26.59 80.4276 26.59C81.0476 26.59 81.5376 26.45 81.8976 26.17C82.2576 25.89 82.5676 25.45 82.8276 24.85L83.5776 22.96L84.0276 22.39L89.5476 8.74H94.9776L87.9576 25.66C87.3976 27.06 86.7476 28.15 86.0076 28.93C85.2876 29.73 84.4776 30.29 83.5776 30.61C82.6976 30.93 81.7176 31.09 80.6376 31.09ZM82.8576 25.69L75.6876 8.74H81.5376L86.8176 21.88L82.8576 25.69Z" fill="#5978A9"/>
</svg>
