<svg width="16" height="16" viewBox="0 0 16 16" fill="none" xmlns="http://www.w3.org/2000/svg">
<g clip-path="url(#clip0_60447_656)">
<path d="M11.4996 16C10.9831 16 10.471 15.9087 9.97023 15.7268C7.76414 14.9254 5.71641 13.6201 4.04835 11.9521C2.3803 10.284 1.07504 8.23629 0.273664 6.03019C0.0161432 5.32122 -0.0598537 4.58937 0.0478606 3.8549C0.148763 3.16693 0.415252 2.49905 0.818548 1.92345C1.22362 1.34532 1.76367 0.864465 2.38026 0.532884C3.0378 0.179305 3.75549 0 4.51346 0C4.7492 0 4.95294 0.164712 5.00234 0.395203L5.78713 4.05752C5.82266 4.22336 5.77169 4.39591 5.65179 4.51585L4.31081 5.85679C5.57582 8.37188 7.62849 10.4245 10.1436 11.6896L11.4845 10.3486C11.6045 10.2287 11.777 10.1778 11.9428 10.2132L15.6052 10.998C15.8357 11.0474 16.0004 11.2512 16.0004 11.4869C16.0004 12.2449 15.8211 12.9626 15.4674 13.6201C15.1359 14.2367 14.655 14.7768 14.0769 15.1818C13.5013 15.5851 12.8334 15.8516 12.1454 15.9525C11.9298 15.9842 11.7143 16 11.4996 16ZM4.11398 1.02183C3.11417 1.1322 2.22677 1.65624 1.63748 2.4973C0.974823 3.44305 0.820298 4.60628 1.21353 5.6888C2.75422 9.93006 6.07036 13.2462 10.3116 14.7869C11.3941 15.1801 12.5573 15.0256 13.5031 14.3629C14.3442 13.7737 14.8682 12.8863 14.9786 11.8864L11.9993 11.248L10.5989 12.6485C10.4498 12.7975 10.2234 12.8371 10.0327 12.7475C7.05817 11.35 4.65039 8.94226 3.25295 5.96769C3.16336 5.77698 3.20292 5.55055 3.35194 5.40156L4.75239 4.00112L4.11398 1.02183Z" fill="#676767"/>
</g>
<defs>
<clipPath id="clip0_60447_656">
<rect width="16" height="16" fill="white"/>
</clipPath>
</defs>
</svg>
