<svg width="40" height="40" viewBox="0 0 40 40" fill="none" xmlns="http://www.w3.org/2000/svg">
<path d="M4.76837 22.7408C4.42402 22.9024 4.27209 23.3091 4.42555 23.6567L5.99845 27.0333C6.07572 27.2014 6.2167 27.3323 6.39008 27.3969C6.46604 27.4245 6.5466 27.4387 6.6276 27.4387C6.72896 27.4396 6.829 27.4179 6.92117 27.3761L18.8051 21.8253L17.7287 33.0799C17.7079 33.3014 17.7933 33.5192 17.959 33.6672C18.48 34.0985 19.1293 34.3441 19.8049 34.3662C19.9912 34.366 20.1764 34.3426 20.357 34.2966C21.3217 34.0449 22.0698 33.1852 22.5801 31.7169L27.2567 17.8689L36.5189 13.5484C39.2453 12.2763 40.6503 9.69683 39.7068 7.68348C39.1713 6.63116 38.1457 5.91531 36.9734 5.77499C35.6709 5.5784 34.3397 5.78331 33.1566 6.36255L22.468 11.3746L10.9759 6.87963C9.52865 6.33453 8.38241 6.34854 7.57856 6.92888C6.90409 7.4823 6.52034 8.31417 6.53675 9.18654C6.54376 9.40786 6.65519 9.61255 6.83732 9.73908L14.5757 15.0587L10.144 17.1559L2.71277 15.2682C2.40826 15.1933 2.09128 15.3306 1.93694 15.6038L0.0847134 18.9381C-0.0113897 19.1147 -0.0264948 19.3244 0.0433387 19.5131C0.112734 19.7021 0.260282 19.8516 0.448329 19.9238L5.94985 22.1959L4.76837 22.7408ZM7.96954 8.83715C8.0107 8.54162 8.16022 8.27258 8.3892 8.08212C8.78784 7.79534 9.51485 7.83737 10.4864 8.20077L20.7206 12.1924L16.0507 14.3735L7.96954 8.83715ZM1.6784 18.9313L2.89469 16.7712L10.0459 18.5466C10.2001 18.5856 10.3627 18.5709 10.5076 18.505L33.751 7.64867C34.675 7.19289 35.7157 7.02696 36.7359 7.17319C37.4513 7.23908 38.0886 7.65195 38.4417 8.27761C39.0283 9.53615 37.8751 11.3746 35.9246 12.2833L27.8716 16.0585L28.3611 14.611C28.4848 14.2386 28.2828 13.8363 27.9104 13.7128C27.5376 13.5893 27.1354 13.7914 27.012 14.1638L21.2587 31.2833C20.9161 32.2552 20.4896 32.8356 20.0144 32.961C19.7199 33.0177 19.4152 32.9599 19.1615 32.8006L20.5597 18.1202C20.5963 17.7342 20.3132 17.3916 19.9268 17.3551C19.5409 17.3181 19.1983 17.6016 19.1615 17.9875L18.945 20.2314L6.94897 25.8238L5.96386 23.7266L7.93474 22.8041C8.18846 22.6922 8.35199 22.4413 8.35199 22.1644C8.35199 21.8873 8.18846 21.6364 7.93474 21.5247L1.6784 18.9313Z" fill="#5978A9"/>
</svg>
