<svg width="44" height="44" viewBox="0 0 44 44" fill="none" xmlns="http://www.w3.org/2000/svg">
<path d="M8.25 23.8333C5.72369 23.8333 3.66669 25.8903 3.66669 28.4166C3.66669 30.9429 5.72369 33 8.25 33C10.7763 33 12.8333 30.943 12.8333 28.4167C12.8333 25.8904 10.7763 23.8333 8.25 23.8333ZM8.25 31.1667C6.7338 31.1667 5.49999 29.9329 5.49999 28.4167C5.49999 26.9005 6.7338 25.6667 8.25 25.6667C9.76619 25.6667 11 26.9005 11 28.4167C11 29.9328 9.76619 31.1667 8.25 31.1667Z" fill="#5978A9"/>
<path d="M35.75 23.8333C33.2237 23.8333 31.1667 25.8903 31.1667 28.4166C31.1667 30.9429 33.2237 33 35.75 33C38.2763 33 40.3333 30.943 40.3333 28.4167C40.3333 25.8904 38.2763 23.8333 35.75 23.8333ZM35.75 31.1667C34.2338 31.1667 33 29.9329 33 28.4167C33 26.9005 34.2338 25.6667 35.75 25.6667C37.2662 25.6667 38.5 26.9005 38.5 28.4167C38.5 29.9328 37.2662 31.1667 35.75 31.1667Z" fill="#5978A9"/>
<path d="M38.5 18.3333H36.949C36.3825 18.3333 35.827 18.139 35.3833 17.7833L28.16 12.0046C27.3497 11.3575 26.3322 11 25.2963 11H12.045C10.5087 11 9.0842 11.7627 8.2317 13.0405L6.6715 15.3835C6.204 16.082 5.423 16.5 4.5833 16.5C2.057 16.5 0 18.557 0 21.0833V24.75C0 27.2763 2.057 29.3333 4.5833 29.3333C5.0893 29.3333 5.5 28.9226 5.5 28.4166C5.5 27.9106 5.0893 27.5 4.5833 27.5C3.06711 27.5 1.8333 26.2662 1.8333 24.75V21.0833C1.8333 19.5671 3.06711 18.3333 4.5833 18.3333C6.039 18.3333 7.3883 17.611 8.1968 16.3991L9.757 14.0579C10.2685 13.2916 11.1247 12.8332 12.045 12.8332H25.2963C25.9196 12.8332 26.5283 13.0477 27.016 13.4364L34.2393 19.2132C35.0038 19.8274 35.9681 20.1665 36.9508 20.1665H38.5C41.1895 20.1665 42.1667 22.9073 42.1667 24.7498C42.1667 26.5556 40.7844 27.4998 39.4167 27.4998C38.9107 27.4998 38.5 27.9105 38.5 28.4165C38.5 28.9225 38.9107 29.3332 39.4167 29.3332C42.0292 29.3333 44 27.3625 44 24.75C44 21.6388 42.0732 18.3333 38.5 18.3333Z" fill="#5978A9"/>
<path d="M32.0833 27.5H11.9167C11.4107 27.5 11 27.9107 11 28.4167C11 28.9227 11.4107 29.3334 11.9167 29.3334H32.0834C32.5894 29.3334 33.0001 28.9227 33.0001 28.4167C33.0001 27.9107 32.5893 27.5 32.0833 27.5Z" fill="#5978A9"/>
<path d="M30.25 18.3333H22V15.5833C22 15.0773 21.5893 14.6666 21.0833 14.6666C20.5773 14.6666 20.1666 15.0773 20.1666 15.5833V19.25C20.1666 19.756 20.5773 20.1667 21.0833 20.1667H30.25C30.756 20.1667 31.1667 19.756 31.1667 19.25C31.1667 18.744 30.756 18.3333 30.25 18.3333Z" fill="#5978A9"/>
<path d="M17.4168 18.3333H11.5666L12.7381 15.994C12.9636 15.5412 12.7803 14.9912 12.3274 14.7638C11.8727 14.5383 11.3246 14.7198 11.0972 15.1745L9.26387 18.8412C9.12087 19.1235 9.13737 19.4627 9.30417 19.7322C9.47098 20.0017 9.76618 20.1667 10.0834 20.1667H17.4167C17.9227 20.1667 18.3334 19.756 18.3334 19.25C18.3334 18.744 17.9228 18.3333 17.4168 18.3333Z" fill="#5978A9"/>
<path d="M24.75 22H22.9167C22.4107 22 22 22.4107 22 22.9167C22 23.4227 22.4107 23.8334 22.9167 23.8334H24.75C25.256 23.8334 25.6667 23.4227 25.6667 22.9167C25.6667 22.4107 25.256 22 24.75 22Z" fill="#5978A9"/>
</svg>
