<svg width="27" height="35" viewBox="0 0 27 35" fill="none" xmlns="http://www.w3.org/2000/svg">
<path d="M16.733 3.85876C15.9247 2.67016 15.2116 1.57665 14.546 0.578232C14.4509 0.4356 14.3082 0.292969 14.1656 0.197881C13.5951 -0.18247 12.8344 0.00770554 12.454 0.578232C11.836 1.57665 11.1228 2.62262 10.267 3.85876C6.51105 9.37385 0.900879 17.694 0.900879 22.4484C0.900879 25.9191 2.32719 29.057 4.6093 31.3391C6.8914 33.5737 10.0293 35 13.5 35C16.9707 35 20.1086 33.5737 22.3907 31.2916C24.6728 29.0095 26.0991 25.8716 26.0991 22.4009C26.0991 17.6465 20.4889 9.37385 16.733 3.85876ZM20.6791 29.58C18.8249 31.4342 16.3051 32.5277 13.5 32.5277C10.6949 32.5277 8.17509 31.3867 6.32088 29.58C4.46667 27.7258 3.37316 25.2059 3.37316 22.4009C3.37316 18.4072 8.74561 10.4674 12.3114 5.18999C12.7393 4.57192 13.1196 3.95385 13.5 3.43086C13.8803 3.95385 14.2607 4.57192 14.6886 5.18999C18.2544 10.5149 23.6268 18.4072 23.6268 22.4009C23.6268 25.2059 22.4858 27.7258 20.6791 29.58Z" fill="#5978A9"/>
</svg>
