<svg width="44" height="47" viewBox="0 0 44 47" fill="none" xmlns="http://www.w3.org/2000/svg">
<ellipse cx="21.8651" cy="23.071" rx="10" ry="21.8571" transform="rotate(40.8765 21.8651 23.071)" fill="#4945FF" fill-opacity="0.1"/>
<g clip-path="url(#clip0_60447_1780)">
<path d="M43.9902 24C43.9902 23.7088 43.8281 23.4418 43.5698 23.3073L36.0373 19.388L43.5698 15.4687C43.8281 15.3342 43.9902 15.0672 43.9902 14.776C43.9902 14.4848 43.8281 14.2177 43.5698 14.0833L37.0819 10.7074C36.699 10.5084 36.2278 10.6572 36.0287 11.0397C35.8297 11.4222 35.9784 11.8938 36.361 12.0928L41.5176 14.7759L24.0001 23.8907L6.48261 14.7759L24.0001 5.66111L30.1273 8.84922C30.5101 9.04826 30.9814 8.89943 31.1804 8.51696C31.3795 8.13442 31.2307 7.66285 30.8482 7.46381L24.3605 4.08814C24.1345 3.97062 23.8656 3.97062 23.6396 4.08814L4.43043 14.0832C4.17204 14.2176 4.01001 14.4846 4.01001 14.7759C4.01001 15.0672 4.17204 15.3341 4.43043 15.4686L11.9629 19.3879L4.43043 23.3073C4.17204 23.4418 4.01001 23.7088 4.01001 24C4.01001 24.2912 4.17204 24.5582 4.43043 24.6927L11.9629 28.612L4.43043 32.5314C4.17204 32.6659 4.01001 32.9329 4.01001 33.2241C4.01001 33.5153 4.17204 33.7823 4.43043 33.9168L23.6396 43.9118C23.7526 43.9706 23.8763 44 24.0001 44C24.1239 44 24.2475 43.9706 24.3605 43.9118L43.5698 33.9168C43.8281 33.7823 43.9902 33.5153 43.9902 33.2241C43.9902 32.9329 43.8281 32.6659 43.5698 32.5314L36.0373 28.612L43.5698 24.6927C43.8281 24.5582 43.9902 24.2912 43.9902 24ZM24.3605 25.4636L34.3455 20.2682L36.6736 21.4795L19.184 30.6088L16.0682 28.9876L23.2402 25.2559L23.6396 25.4636C23.7526 25.5224 23.8762 25.5518 24 25.5518C24.1238 25.5518 24.2475 25.5224 24.3605 25.4636ZM21.5484 24.3755L14.3764 28.1073L11.2754 26.4938L18.4475 22.762L21.5484 24.3755ZM13.6547 20.2682L16.7556 21.8817L9.58357 25.6135L6.48253 23.9999L13.6547 20.2682ZM41.5176 33.2241L24.0001 42.3389L6.48261 33.2241L13.6547 29.4924L23.6396 34.6878C23.7526 34.7465 23.8763 34.776 24.0001 34.776C24.1239 34.776 24.2475 34.7466 24.3605 34.6878L34.3455 29.4924L41.5176 33.2241ZM24.0001 33.1148L20.8741 31.4882L38.3637 22.359L41.5176 24L24.0001 33.1148Z" fill="#5978A9"/>
<path d="M33.6048 10.5593C33.8102 10.5593 34.0117 10.4757 34.1568 10.3305C34.3021 10.1853 34.3857 9.98379 34.3857 9.77842C34.3857 9.57306 34.3021 9.37159 34.1568 9.22635C34.0117 9.08111 33.8102 8.99756 33.6048 8.99756C33.3995 8.99756 33.198 9.08111 33.0528 9.22635C32.9075 9.37159 32.824 9.57306 32.824 9.77842C32.824 9.98379 32.9074 10.1853 33.0528 10.3305C33.1981 10.4757 33.3995 10.5593 33.6048 10.5593Z" fill="#5978A9"/>
</g>
<defs>
<clipPath id="clip0_60447_1780">
<rect width="40" height="40" fill="white" transform="translate(4 4)"/>
</clipPath>
</defs>
</svg>
