<?xml version="1.0" encoding="utf-8"?><svg viewBox="0 0 24 24" xmlns="http://www.w3.org/2000/svg" xmlns:xlink="http://www.w3.org/1999/xlink"><style>:root>svg{display:none}:root>svg:target{display:block}</style><svg viewBox="0 0 24 24" id="basket" xmlns="http://www.w3.org/2000/svg"><g clip-path="url(#aclip0_60447_14)"><path d="M6.938 17.78c-1.049-.053-1.03-1.528 0-1.58 2.914.011 10.6.004 13.607.006.822 0 1.526-.56 1.71-1.361l1.708-7.394c.098-.423 0-.86-.27-1.201a1.408 1.408 0 00-1.109-.54c-1.21 0-11.477-.046-16.736-.067L5.015 2.55a1.703 1.703 0 00-1.64-1.255H.702a.704.704 0 000 1.407h2.671c.132 0 .248.089.282.215l3.202 11.879c-.563.02-1.087.25-1.485.653a2.18 2.18 0 00-.632 1.58 2.207 2.207 0 002.197 2.159h1.025a2.465 2.465 0 002.224 3.518 2.465 2.465 0 002.225-3.518h4.442a2.465 2.465 0 002.225 3.517 2.465 2.465 0 002.206-3.555.703.703 0 00-.225-1.37H6.938zm4.305 2.463a1.056 1.056 0 01-2.11 0c0-.582.472-1.055 1.054-1.055h.002c.581 0 1.054.473 1.054 1.055zm7.836 1.055a1.056 1.056 0 01-.017-2.11h.034a1.056 1.056 0 01-.017 2.11zm3.51-14.175c.005.005.004.008.003.012l-.72 3.115h-2.435l.415-3.143 2.727.01c.004 0 .006 0 .01.006zM15.338 14.8v-3.142h2.495l-.415 3.142h-2.08zm-3.489 0l-.418-3.142h2.5V14.8h-2.082zm-3.238 0h-.003a.381.381 0 01-.367-.28l-.77-2.862h2.54l.419 3.142h-1.82zm2.633-4.549l-.423-3.18 3.11.013v3.167h-2.687zm4.094 0V7.09l3.096.012-.416 3.15h-2.68zM9.4 7.065l.424 3.185H7.09l-.862-3.198 3.172.013zm11.145 7.734h-1.709l.415-3.142h2.297l-.663 2.871a.347.347 0 01-.34.27z"/></g><defs><clipPath id="aclip0_60447_14"><path d="M0 0h24v24H0z"/></clipPath></defs></svg><svg viewBox="0 0 24 24" id="close" xmlns="http://www.w3.org/2000/svg"><g clip-path="url(#bclip0_639_420)"><path d="M13.407 12.007L23.695 1.719A1 1 0 1022.28.306L11.994 10.593 1.705.305A1 1 0 00.292 1.72L10.58 12.007.292 22.294a1 1 0 001.414 1.414L11.993 13.42l10.288 10.288a1 1 0 001.414-1.414L13.407 12.007z"/></g><defs><clipPath id="bclip0_639_420"><path d="M0 0h24v24H0z"/></clipPath></defs></svg><svg viewBox="0 0 11 19" id="left" xmlns="http://www.w3.org/2000/svg"><path d="M8.197 18.05L.45 10.302a1.548 1.548 0 010-2.184L8.197.373a1.548 1.548 0 012.184 2.184L3.735 9.203l6.646 6.662c.601.604.601 1.58 0 2.184a1.548 1.548 0 01-2.184 0z"/></svg><svg viewBox="0 0 24 24" id="likes" xmlns="http://www.w3.org/2000/svg"><path d="M22.3 3.375c-1.135-1.107-2.702-1.66-4.702-1.66-.553 0-1.118.095-1.694.287a6.847 6.847 0 00-1.607.777c-.496.326-.922.632-1.28.917-.356.286-.696.59-1.017.911-.322-.321-.66-.625-1.018-.91a17.197 17.197 0 00-1.279-.918 6.856 6.856 0 00-1.607-.777 5.342 5.342 0 00-1.694-.288c-2 0-3.567.554-4.701 1.661C.567 4.482 0 6.018 0 7.982 0 8.58.105 9.197.315 9.83c.21.634.449 1.174.716 1.62.268.447.572.882.911 1.306.34.425.587.717.743.877.157.161.28.277.369.349l8.357 8.063c.16.16.357.24.589.24.232 0 .429-.08.59-.24l8.343-8.037C22.978 11.964 24 9.955 24 7.982c0-1.965-.567-3.5-1.7-4.607zm-2.532 9.375L12 20.236l-7.781-7.5c-1.67-1.67-2.504-3.254-2.504-4.754 0-.723.096-1.362.287-1.915.192-.554.438-.994.737-1.32.3-.325.663-.59 1.091-.796a4.839 4.839 0 011.26-.415 7.67 7.67 0 011.312-.107c.464 0 .964.113 1.5.341a6.847 6.847 0 011.48.857c.45.344.837.665 1.158.964.322.3.59.574.804.824.16.197.38.295.656.295a.803.803 0 00.656-.295c.215-.25.482-.524.804-.824.321-.299.707-.62 1.158-.964.451-.344.944-.63 1.48-.857.536-.228 1.036-.341 1.5-.341.465 0 .902.035 1.313.107.41.07.83.21 1.259.415.428.205.792.47 1.091.797.3.325.545.765.737 1.319.192.553.288 1.192.288 1.915 0 1.5-.84 3.09-2.518 4.768z"/></svg><svg viewBox="0 0 16 16" id="local" xmlns="http://www.w3.org/2000/svg"><path d="M8 0a5.631 5.631 0 00-5.625 5.625c0 1.048.29 2.07.84 2.958l4.465 7.195a.469.469 0 00.398.222h.004a.469.469 0 00.398-.228l4.352-7.265c.519-.869.793-1.865.793-2.882A5.631 5.631 0 008 0zm4.027 8.026L8.071 14.63l-4.06-6.542a4.682 4.682 0 01-.705-2.464A4.704 4.704 0 018 .931a4.7 4.7 0 014.69 4.694c0 .848-.231 1.678-.663 2.4z"/><path d="M8 2.813a2.816 2.816 0 00-2.813 2.812A2.809 2.809 0 008 8.438a2.807 2.807 0 002.813-2.813A2.816 2.816 0 008 2.812zm0 4.693a1.883 1.883 0 01-1.881-1.881c0-1.034.847-1.881 1.881-1.881s1.878.847 1.878 1.881A1.88 1.88 0 018 7.506z"/></svg><svg viewBox="0 0 19 16" id="mail" xmlns="http://www.w3.org/2000/svg"><g clip-path="url(#fclip0_60447_48)"><path d="M16.532 1.906H1.593C.716 1.906 0 2.537 0 3.313v9.374c0 .773.713 1.407 1.593 1.407h14.94c.874 0 1.592-.63 1.592-1.406V3.312c0-.772-.712-1.406-1.593-1.406zm-.22.938l-7.216 6.37-7.278-6.37h14.494zm-15.25 9.65V3.501l5.115 4.476-5.115 4.515zm.751.662l5.118-4.518 1.793 1.57a.582.582 0 00.75-.002l1.748-1.543 5.09 4.493H1.813zm15.25-.663L11.973 8l5.09-4.493v8.986z"/></g><defs><clipPath id="fclip0_60447_48"><path d="M0 0h18.125v16H0z"/></clipPath></defs></svg><svg viewBox="0 0 16 16" id="phone" xmlns="http://www.w3.org/2000/svg"><g clip-path="url(#gclip0_60447_43)"><path d="M11.5 16a4.459 4.459 0 01-1.53-.273 16.308 16.308 0 01-5.922-3.775A16.308 16.308 0 01.274 6.03a4.426 4.426 0 01-.226-2.175A4.53 4.53 0 012.38.533 4.455 4.455 0 014.513 0a.5.5 0 01.49.395l.784 3.663a.5.5 0 01-.135.458L4.31 5.856a13.161 13.161 0 005.833 5.834l1.34-1.341a.5.5 0 01.459-.136l3.662.785a.5.5 0 01.395.489c0 .758-.179 1.476-.533 2.133a4.547 4.547 0 01-3.322 2.333A4.436 4.436 0 0111.5 16zM4.114 1.022c-1 .11-1.887.634-2.477 1.475a3.445 3.445 0 00-.423 3.192 15.165 15.165 0 009.098 9.098 3.445 3.445 0 003.191-.424 3.463 3.463 0 001.476-2.477l-2.98-.638-1.4 1.4a.5.5 0 01-.566.1 14.158 14.158 0 01-6.78-6.78.5.5 0 01.099-.566l1.4-1.4-.638-2.98z"/></g><defs><clipPath id="gclip0_60447_43"><path d="M0 0h16v16H0z"/></clipPath></defs></svg><svg viewBox="0 0 10 18" id="play" xmlns="http://www.w3.org/2000/svg"><path d="M1.429 17.643c.284 0 .552-.117.753-.318l7.5-7.5c.2-.201.318-.469.318-.754 0-.284-.117-.552-.318-.753l-7.5-7.5C1.98.618 1.713.5 1.429.5.843.5.357.985.357 1.571v15c0 .586.486 1.072 1.072 1.072z"/></svg><svg viewBox="0 0 11 19" id="right" xmlns="http://www.w3.org/2000/svg"><path d="M2.635.45l7.746 7.747c.601.604.601 1.58 0 2.184l-7.746 7.746a1.548 1.548 0 01-2.184-2.184l6.646-6.646L.45 2.635a1.548 1.548 0 010-2.184 1.548 1.548 0 012.184 0z"/></svg></svg>