<svg width="19" height="16" viewBox="0 0 19 16" fill="none" xmlns="http://www.w3.org/2000/svg">
<g clip-path="url(#clip0_60447_48)">
<path d="M16.5321 1.90625H1.59303C0.715729 1.90625 0 2.53737 0 3.3125V12.6875C0 13.46 0.712543 14.0938 1.59303 14.0938H16.5321C17.4072 14.0938 18.1251 13.4648 18.1251 12.6875V3.3125C18.1251 2.54 17.4126 1.90625 16.5321 1.90625ZM16.3121 2.84375L9.09632 9.21353L1.81814 2.84375H16.3121ZM1.06202 12.4934V3.50216L6.17666 7.97841L1.06202 12.4934ZM1.81297 13.1562L6.93083 8.63844L8.72412 10.2079C8.93171 10.3896 9.26671 10.389 9.47345 10.2064L11.222 8.66291L16.3121 13.1562H1.81297ZM17.0631 12.4933L11.9729 8L17.0631 3.50662V12.4933Z" fill="#676767"/>
</g>
<defs>
<clipPath id="clip0_60447_48">
<rect width="18.1251" height="16" fill="white"/>
</clipPath>
</defs>
</svg>
