<svg width="24" height="24" viewBox="0 0 24 24" fill="none" xmlns="http://www.w3.org/2000/svg">
<path d="M20.0625 9.46875C20.0625 9.73437 19.9688 9.98437 19.7813 10.1719L11.2969 18.6562C11.1094 18.8437 10.8438 18.9531 10.5781 18.9531C10.3281 18.9531 10.0625 18.8437 9.875 18.6562L4.21875 13C4.03125 12.8125 3.9375 12.5625 3.9375 12.2969C3.9375 12.0312 4.03125 11.7656 4.21875 11.5781L5.64063 10.1719C5.82813 9.98437 6.07813 9.875 6.34375 9.875C6.60938 9.875 6.85938 9.98437 7.04688 10.1719L10.5781 13.7031L16.9531 7.34375C17.1406 7.15625 17.3906 7.04687 17.6563 7.04687C17.9219 7.04687 18.1719 7.15625 18.3594 7.34375L19.7813 8.75C19.9688 8.9375 20.0625 9.20312 20.0625 9.46875ZM24 12C24 5.375 18.625 -1.19209e-06 12 -1.19209e-06C5.375 -1.19209e-06 0 5.375 0 12C0 18.625 5.375 24 12 24C18.625 24 24 18.625 24 12Z" fill="#4945FF"/>
</svg>
