<svg width="50" height="50" viewBox="0 0 50 50" fill="none" xmlns="http://www.w3.org/2000/svg">
<path d="M45.1688 47.6563C45.2563 47.411 45.3125 47.15 45.3125 46.875C45.3125 46.6 45.2563 46.3391 45.1688 46.0938H46.875V44.5313H45.3125V40.625C45.3125 40.193 44.9633 39.8438 44.5312 39.8438H42.1875V35.9375C42.1875 35.5055 41.8383 35.1563 41.4062 35.1563H40.625V25C40.625 24.568 40.2758 24.2188 39.8438 24.2188H10.1562C9.72422 24.2188 9.375 24.568 9.375 25V47.6563H6.25V18.9789L25 7.17346L43.75 18.9797V38.2813H45.3125V19.9633L45.6773 20.193C45.8062 20.2735 45.95 20.3125 46.093 20.3125C46.332 20.3125 46.5656 20.2031 46.7188 20L49.0625 16.875C49.1937 16.7008 49.2453 16.4797 49.2062 16.2656C49.1672 16.0516 49.0398 15.8633 48.8563 15.7469L25.4187 0.903149C25.1641 0.741431 24.8375 0.741431 24.5828 0.903149L1.14531 15.7469C0.961719 15.8633 0.834375 16.0516 0.795313 16.2656C0.754688 16.4797 0.80625 16.7008 0.9375 16.875L3.28125 20C3.525 20.3258 3.97813 20.4094 4.32266 20.193L4.6875 19.9633V47.6563H0.78125V49.2188H49.2188V47.6563H45.1688ZM4.09922 18.4867L2.69453 16.6141L25 2.48752L47.3055 16.6141L45.9008 18.4867L25.4164 5.58831C25.2891 5.50862 25.1445 5.46877 25 5.46877C24.8555 5.46877 24.7109 5.50862 24.5836 5.58831L4.09922 18.4867ZM43.75 46.875C43.75 47.3063 43.4 47.6563 42.9688 47.6563C42.5375 47.6563 42.1875 47.3063 42.1875 46.875C42.1875 46.4438 42.5375 46.0938 42.9688 46.0938C43.4 46.0938 43.75 46.4438 43.75 46.875ZM34.375 46.875C34.375 46.4438 34.725 46.0938 35.1562 46.0938C35.5875 46.0938 35.9375 46.4438 35.9375 46.875C35.9375 47.3063 35.5875 47.6563 35.1562 47.6563C34.725 47.6563 34.375 47.3063 34.375 46.875ZM32.8125 41.4063H34.375V42.9688H35.9375V41.4063H37.5V44.5313H32.8125V41.4063ZM37.3563 46.0938H40.7695C40.6813 46.3391 40.625 46.6 40.625 46.875C40.625 47.15 40.6812 47.411 40.7687 47.6563H37.3555C37.4437 47.411 37.5 47.15 37.5 46.875C37.5 46.6 37.4438 46.3391 37.3563 46.0938ZM43.75 44.5313H39.0625V41.4063H40.625V42.9688H42.1875V41.4063H43.75V44.5313ZM35.9375 39.8438V36.7188H37.5V38.2813H39.0625V36.7188H40.625V39.8438H35.9375ZM35.1562 35.1563C34.7242 35.1563 34.375 35.5055 34.375 35.9375V39.8438H32.8125V34.375C32.8125 33.943 32.4633 33.5938 32.0312 33.5938H28.9062V35.1563H31.25V45.3125C31.25 45.7446 31.5992 46.0938 32.0312 46.0938H32.9562C32.8687 46.3391 32.8125 46.6 32.8125 46.875C32.8125 47.15 32.8687 47.411 32.9562 47.6563H29.6875V43.75C29.6875 43.318 29.3383 42.9688 28.9062 42.9688H23.4375V39.0625C23.4375 38.6305 23.0883 38.2813 22.6562 38.2813H17.1875V34.375C17.1875 33.943 16.8383 33.5938 16.4062 33.5938H10.9375V32.0313H39.0625V35.1563H35.1562ZM10.9375 42.9688V39.8438H12.5V41.4063H14.0625V39.8438H15.625V42.9688H10.9375ZM14.0625 36.7188V35.1563H15.625V38.2813H10.9375V35.1563H12.5V36.7188H14.0625ZM20.3125 41.4063V39.8438H21.875V42.9688H17.1875V39.8438H18.75V41.4063H20.3125ZM17.1875 44.5313H18.75V46.0938H20.3125V44.5313H21.875V47.6563H17.1875V44.5313ZM23.4375 44.5313H25V46.0938H26.5625V44.5313H28.125V47.6563H23.4375V44.5313ZM39.0625 30.4688H10.9375V28.9063H39.0625V30.4688ZM39.0625 25.7813V27.3438H10.9375V25.7813H39.0625ZM10.9375 44.5313H12.5V46.0938H14.0625V44.5313H15.625V47.6563H10.9375V44.5313Z" fill="#5978A9"/>
<path d="M15.625 16.4062C15.193 16.4062 14.8438 16.7555 14.8438 17.1875V21.875C14.8438 22.307 15.193 22.6562 15.625 22.6562H34.375C34.807 22.6562 35.1562 22.307 35.1562 21.875V17.1875C35.1562 16.7555 34.807 16.4062 34.375 16.4062H15.625ZM33.5938 21.0938H16.4062V17.9688H33.5938V21.0938Z" fill="#5978A9"/>
</svg>
