<svg width="50" height="50" viewBox="0 0 50 50" fill="none" xmlns="http://www.w3.org/2000/svg">
<g clip-path="url(#clip0_60447_790)">
<path d="M49.6512 17.9618L44.0651 3.43803C43.0066 0.692446 39.9227 -0.675145 37.1771 0.38338C37.1373 0.398781 37.0975 0.414599 37.058 0.430937L9.14253 12.0027C6.48446 13.0931 5.17805 16.1018 6.19631 18.7884L6.96387 20.8372H5.20313C2.3309 20.8404 0.00322594 23.1681 0 26.0403V44.7716C0.00322594 47.6438 2.3309 49.9715 5.20313 49.9747H40.5844C43.4567 49.9715 45.7843 47.6438 45.7876 44.7716V26.0403C45.7859 25.7579 45.7608 25.4761 45.7126 25.1978L46.6792 24.8066C49.361 23.7073 50.679 20.6718 49.6512 17.9618ZM5.20313 22.5023H40.5844C42.453 22.5076 43.9944 23.9669 44.1017 25.8323H1.68581C1.79321 23.9668 3.33458 22.5075 5.20313 22.5023ZM13.5706 17.4873L19.135 14.7043L20.2789 17.5656L14.7145 20.3478L13.5706 17.4873ZM44.1226 44.7717C44.1203 46.7248 42.5376 48.3075 40.5844 48.3098H5.20313C3.24998 48.3075 1.66729 46.7248 1.665 44.7717V34.1573H44.1226V44.7717ZM44.1226 32.4923H1.665V27.4973H44.1226V32.4923ZM46.0548 23.2682L45.1848 23.6203C44.2863 21.9112 42.5154 20.84 40.5844 20.8373H17.4592L21.7091 18.7119C22.0967 18.5185 22.2712 18.0602 22.1104 17.658L20.3447 13.2457C20.1739 12.8189 19.6895 12.6112 19.2626 12.7818C19.2411 12.7905 19.22 12.7999 19.1992 12.8103L12.1405 16.3418C11.7533 16.5356 11.5792 16.9937 11.74 17.3957L13.117 20.8373H8.74126L7.75558 18.2083C7.0568 16.3624 7.95434 14.2957 9.78022 13.5463L37.6948 1.9745C39.561 1.20069 41.7011 2.08616 42.475 3.95231C42.4871 3.98134 42.4988 4.01059 42.51 4.03993L48.0961 18.5637C48.8028 20.4259 47.8975 22.5122 46.0548 23.2682Z" fill="#5978A9"/>
<path d="M29.9466 45.9688C31.498 46.8701 33.4137 46.8701 34.965 45.9688C37.3504 47.3546 40.4075 46.5443 41.7933 44.159C43.1791 41.7736 42.3688 38.7165 39.9835 37.3307C39.2179 36.8859 38.3479 36.6526 37.4625 36.6547C36.5849 36.6551 35.723 36.8883 34.965 37.3307C32.5797 35.9449 29.5226 36.7551 28.1368 39.1404C26.751 41.5259 27.5613 44.5829 29.9466 45.9688ZM36.357 38.5229C36.7111 38.3924 37.0851 38.3238 37.4625 38.3198C39.3016 38.3198 40.7925 39.8107 40.7925 41.6498C40.7925 43.4889 39.3016 44.9798 37.4625 44.9798C37.0851 44.9759 36.7111 44.9072 36.357 44.7767C37.8309 42.9526 37.8309 40.3469 36.357 38.5229ZM34.965 39.4703C36.0751 40.7114 36.0751 42.5882 34.965 43.8293C33.855 42.5882 33.855 40.7113 34.965 39.4703ZM32.4675 38.3198C32.845 38.3237 33.219 38.3924 33.5731 38.5229C32.0991 40.3469 32.0991 42.9527 33.5731 44.7767C33.219 44.9072 32.845 44.9759 32.4675 44.9798C30.6284 44.9798 29.1375 43.4889 29.1375 41.6498C29.1375 39.8106 30.6284 38.3198 32.4675 38.3198Z" fill="#5978A9"/>
<path d="M35.1168 17.2061L35.7931 18.7276L43.7352 15.1972L43.0589 13.6757L35.1168 17.2061Z" fill="#5978A9"/>
<path d="M41.2865 10.1511L29.8148 15.446L30.5123 16.9571L41.984 11.6622L41.2865 10.1511Z" fill="#5978A9"/>
</g>
<defs>
<clipPath id="clip0_60447_790">
<rect width="50" height="50" fill="white"/>
</clipPath>
</defs>
</svg>
