<svg width="48" height="48" viewBox="0 0 48 48" fill="none" xmlns="http://www.w3.org/2000/svg">
<path d="M28.188 26.4548V6.29706C28.188 2.81924 25.3687 0 21.8909 0C18.4131 0 15.5939 2.81924 15.5939 6.29706V26.4459C10.1511 29.9184 8.55376 37.1458 12.0263 42.5886C14.1693 45.9474 17.8754 47.9836 21.8596 47.991L21.9223 48C28.3785 47.9879 33.6025 42.7443 33.5904 36.2881C33.5829 32.3039 31.5468 28.5978 28.188 26.4548ZM16.9723 44.8884C12.233 42.1522 10.6093 36.092 13.3455 31.3527C14.2152 29.8464 15.466 28.5956 16.9723 27.7259C17.2504 27.5653 17.4211 27.2681 17.4199 26.9471V6.29706C17.4199 3.808 19.4377 1.79021 21.9267 1.79021C24.4158 1.79021 26.4336 3.808 26.4336 6.29706V26.9471C26.4324 27.2681 26.6031 27.5653 26.8811 27.7259C31.6205 30.4621 33.2442 36.5223 30.508 41.2615C27.7718 46.0009 21.7116 47.6247 16.9723 44.8884Z" fill="#5978A9"/>
<path d="M22.8169 29.8742V16.2955C22.8169 15.8012 22.4161 15.4004 21.9218 15.4004C21.4275 15.4004 21.0267 15.8012 21.0267 16.2955V29.8742C17.6453 30.3592 15.2973 33.4934 15.7822 36.8747C16.2199 39.9268 18.8385 42.1904 21.9218 42.1819C25.3378 42.1913 28.1146 39.4298 28.1241 36.0139C28.1326 32.9306 25.869 30.3119 22.8169 29.8742ZM21.9218 40.3828C19.4945 40.3828 17.5269 38.4151 17.5269 35.9878C17.5318 33.5626 19.4965 31.5978 21.9218 31.5928C24.3491 31.5928 26.3168 33.5605 26.3168 35.9878C26.3168 38.4151 24.349 40.3828 21.9218 40.3828Z" fill="#5978A9"/>
<path d="M36.9148 6.15381H31.3204C30.8261 6.15381 30.4253 6.55459 30.4253 7.04891C30.4253 7.54324 30.8261 7.94402 31.3204 7.94402H36.9148C37.4091 7.94402 37.8099 7.54324 37.8099 7.04891C37.8099 6.55459 37.4091 6.15381 36.9148 6.15381Z" fill="#5978A9"/>
<path d="M35.7246 10.6294H32.4395C31.9452 10.6294 31.5444 11.0302 31.5444 11.5245C31.5444 12.0188 31.9452 12.4196 32.4395 12.4196H35.7246C36.2189 12.4196 36.6197 12.0188 36.6197 11.5245C36.6197 11.0302 36.2189 10.6294 35.7246 10.6294Z" fill="#5978A9"/>
<path d="M36.9148 15.105H31.3204C30.8261 15.105 30.4253 15.5058 30.4253 16.0001C30.4253 16.4944 30.8261 16.8952 31.3204 16.8952H36.9148C37.4091 16.8952 37.8099 16.4944 37.8099 16.0001C37.8099 15.5058 37.4091 15.105 36.9148 15.105Z" fill="#5978A9"/>
<path d="M35.7246 19.5806H32.4395C31.9452 19.5806 31.5444 19.9813 31.5444 20.4757C31.5444 20.97 31.9452 21.3708 32.4395 21.3708H35.7246C36.2189 21.3708 36.6197 20.97 36.6197 20.4757C36.6197 19.9813 36.2189 19.5806 35.7246 19.5806Z" fill="#5978A9"/>
<path d="M36.9148 24.0562H31.3204C30.8261 24.0562 30.4253 24.4569 30.4253 24.9513C30.4253 25.4456 30.8261 25.8463 31.3204 25.8463H36.9148C37.4091 25.8463 37.8099 25.4456 37.8099 24.9513C37.8099 24.4569 37.4091 24.0562 36.9148 24.0562Z" fill="#5978A9"/>
</svg>
