<svg width="50" height="50" viewBox="0 0 50 50" fill="none" xmlns="http://www.w3.org/2000/svg">
<path d="M42.5945 43.1081C41.8701 43.1074 41.1757 42.8191 40.6639 42.3066C40.152 41.7941 39.8646 41.0993 39.8647 40.375V31.0324C39.8647 30.8532 39.9359 30.6813 40.0626 30.5546C40.1894 30.4279 40.3612 30.3567 40.5404 30.3567C40.7196 30.3567 40.8915 30.4279 41.0182 30.5546C41.1449 30.6813 41.2161 30.8532 41.2161 31.0324V40.375C41.212 40.5585 41.2447 40.741 41.3121 40.9117C41.3795 41.0825 41.4804 41.2381 41.6088 41.3693C41.7371 41.5005 41.8904 41.6048 42.0596 41.676C42.2288 41.7472 42.4106 41.7839 42.5941 41.7839C42.7777 41.7839 42.9595 41.7472 43.1287 41.676C43.2979 41.6048 43.4512 41.5005 43.5795 41.3693C43.7079 41.2381 43.8088 41.0825 43.8762 40.9117C43.9436 40.741 43.9763 40.5585 43.9722 40.375V24.1142C43.9722 23.935 44.0434 23.7631 44.1701 23.6364C44.2968 23.5097 44.4687 23.4385 44.6479 23.4385C44.8271 23.4385 44.9989 23.5097 45.1256 23.6364C45.2524 23.7631 45.3235 23.935 45.3235 24.1142V40.375C45.3237 41.0992 45.0364 41.7938 44.5247 42.3063C44.0129 42.8188 43.3187 43.1072 42.5945 43.1081V43.1081Z" fill="#5978A9"/>
<path d="M46.311 31.5805C45.6911 31.58 45.0967 31.3335 44.6582 30.8952C44.2198 30.457 43.9732 29.8626 43.9725 29.2427V24.1143C43.9725 23.9351 44.0437 23.7633 44.1704 23.6366C44.2971 23.5098 44.469 23.4387 44.6482 23.4387C44.8274 23.4387 44.9992 23.5098 45.1259 23.6366C45.2526 23.7633 45.3238 23.9351 45.3238 24.1143V29.2427C45.3306 29.5 45.4375 29.7444 45.6218 29.924C45.8061 30.1035 46.0533 30.204 46.3106 30.204C46.568 30.204 46.8152 30.1035 46.9995 29.924C47.1838 29.7444 47.2907 29.5 47.2975 29.2427V20.9691C47.2966 20.2563 47.013 19.573 46.509 19.069C46.005 18.565 45.3217 18.2814 44.609 18.2805H36.4725C35.7597 18.2814 35.0764 18.565 34.5724 19.069C34.0684 19.573 33.7849 20.2563 33.784 20.9691V29.2427C33.7907 29.5 33.8976 29.7444 34.082 29.924C34.2663 30.1035 34.5135 30.204 34.7708 30.204C35.0281 30.204 35.2753 30.1035 35.4596 29.924C35.644 29.7444 35.7509 29.5 35.7576 29.2427V24.1143C35.7576 23.9351 35.8288 23.7633 35.9555 23.6366C36.0822 23.5098 36.2541 23.4387 36.4333 23.4387C36.6125 23.4387 36.7843 23.5098 36.9111 23.6366C37.0378 23.7633 37.109 23.9351 37.109 24.1143V29.2427C37.0985 29.8559 36.8476 30.4405 36.4103 30.8705C35.9729 31.3005 35.3841 31.5415 34.7708 31.5415C34.1575 31.5415 33.5687 31.3005 33.1313 30.8705C32.694 30.4405 32.443 29.8559 32.4326 29.2427V20.9691C32.4339 19.898 32.8599 18.8712 33.6172 18.1138C34.3746 17.3565 35.4014 16.9305 36.4725 16.9292H44.609C45.68 16.9305 46.7068 17.3565 47.4642 18.1138C48.2215 18.8712 48.6476 19.898 48.6488 20.9691V29.2427C48.6481 29.8625 48.4016 30.4567 47.9633 30.895C47.525 31.3333 46.9308 31.5798 46.311 31.5805V31.5805Z" fill="#5978A9"/>
<path d="M38.4864 43.1081C37.7627 43.1072 37.069 42.8193 36.5574 42.3075C36.0458 41.7958 35.758 41.102 35.7573 40.3783V24.1142C35.7573 23.935 35.8285 23.7631 35.9552 23.6364C36.0819 23.5097 36.2538 23.4385 36.433 23.4385C36.6122 23.4385 36.7841 23.5097 36.9108 23.6364C37.0375 23.7631 37.1087 23.935 37.1087 24.1142V40.375C37.1046 40.5585 37.1372 40.741 37.2047 40.9117C37.2721 41.0825 37.373 41.2381 37.5013 41.3693C37.6297 41.5005 37.783 41.6048 37.9522 41.676C38.1214 41.7472 38.3031 41.7839 38.4867 41.7839C38.6703 41.7839 38.852 41.7472 39.0212 41.676C39.1904 41.6048 39.3437 41.5005 39.4721 41.3693C39.6005 41.2381 39.7013 41.0825 39.7687 40.9117C39.8362 40.741 39.8688 40.5585 39.8647 40.375V31.0324C39.8647 30.8532 39.9359 30.6813 40.0626 30.5546C40.1894 30.4279 40.3612 30.3567 40.5404 30.3567C40.7196 30.3567 40.8915 30.4279 41.0182 30.5546C41.1449 30.6813 41.2161 30.8532 41.2161 31.0324V40.375C41.2163 41.0993 40.9288 41.7941 40.417 42.3066C39.9051 42.8191 39.2107 43.1074 38.4864 43.1081V43.1081Z" fill="#5978A9"/>
<path d="M40.5405 15.4056C39.6985 15.4056 38.8755 15.1559 38.1755 14.6882C37.4755 14.2205 36.9299 13.5557 36.6077 12.7778C36.2855 12 36.2012 11.1441 36.3655 10.3184C36.5297 9.49266 36.9352 8.73418 37.5305 8.13887C38.1258 7.54355 38.8843 7.13813 39.71 6.97388C40.5357 6.80964 41.3916 6.89393 42.1694 7.21612C42.9473 7.5383 43.6121 8.0839 44.0798 8.78392C44.5476 9.48394 44.7972 10.3069 44.7972 11.1488C44.7961 12.2775 44.3473 13.3596 43.5493 14.1576C42.7512 14.9557 41.6691 15.4045 40.5405 15.4056V15.4056ZM40.5405 8.24344C39.9658 8.24344 39.4041 8.41384 38.9263 8.73309C38.4485 9.05234 38.0761 9.5061 37.8562 10.037C37.6363 10.5679 37.5788 11.1521 37.6909 11.7157C37.803 12.2793 38.0797 12.7969 38.486 13.2033C38.8924 13.6096 39.41 13.8863 39.9736 13.9984C40.5372 14.1105 41.1214 14.053 41.6523 13.8331C42.1832 13.6132 42.637 13.2408 42.9562 12.763C43.2755 12.2852 43.4459 11.7235 43.4459 11.1488C43.445 10.3789 43.1385 9.64074 42.5937 9.0966C42.0489 8.55246 41.3104 8.24682 40.5405 8.24682V8.24344Z" fill="#5978A9"/>
<path d="M7.40532 43.1081C6.68169 43.1072 5.98796 42.8193 5.47634 42.3075C4.96472 41.7958 4.67698 41.102 4.67627 40.3783V24.1142C4.67627 23.935 4.74746 23.7631 4.87417 23.6364C5.00088 23.5097 5.17274 23.4385 5.35195 23.4385C5.53115 23.4385 5.70301 23.5097 5.82972 23.6364C5.95643 23.7631 6.02762 23.935 6.02762 24.1142V40.375C6.02356 40.5585 6.0562 40.741 6.12362 40.9117C6.19105 41.0825 6.29191 41.2381 6.42027 41.3693C6.54864 41.5005 6.70192 41.6048 6.87114 41.676C7.04035 41.7472 7.22208 41.7839 7.40566 41.7839C7.58924 41.7839 7.77097 41.7472 7.94018 41.676C8.1094 41.6048 8.26269 41.5005 8.39105 41.3693C8.51942 41.2381 8.62027 41.0825 8.6877 40.9117C8.75513 40.741 8.78777 40.5585 8.7837 40.375V31.0324C8.7837 30.8532 8.85489 30.6813 8.9816 30.5546C9.10832 30.4279 9.28018 30.3567 9.45938 30.3567C9.63858 30.3567 9.81044 30.4279 9.93715 30.5546C10.0639 30.6813 10.1351 30.8532 10.1351 31.0324V40.375C10.1352 41.0993 9.8478 41.7941 9.33594 42.3066C8.82407 42.8191 8.12966 43.1074 7.40532 43.1081V43.1081Z" fill="#5978A9"/>
<path d="M15.2295 31.5805C14.6095 31.58 14.0151 31.3335 13.5767 30.8952C13.1383 30.457 12.8917 29.8626 12.8909 29.2427V24.1143C12.8909 23.9351 12.9621 23.7633 13.0888 23.6366C13.2156 23.5098 13.3874 23.4387 13.5666 23.4387C13.7458 23.4387 13.9177 23.5098 14.0444 23.6366C14.1711 23.7633 14.2423 23.9351 14.2423 24.1143V29.2427C14.249 29.5 14.3559 29.7444 14.5403 29.924C14.7246 30.1035 14.9718 30.204 15.2291 30.204C15.4865 30.204 15.7336 30.1035 15.918 29.924C16.1023 29.7444 16.2092 29.5 16.2159 29.2427V20.9691C16.215 20.2563 15.9315 19.573 15.4275 19.069C14.9235 18.565 14.2402 18.2814 13.5274 18.2805H5.39094C4.67818 18.2814 3.99486 18.565 3.49086 19.069C2.98686 19.573 2.70332 20.2563 2.70243 20.9691V29.2427C2.70916 29.5 2.81608 29.7444 3.00041 29.924C3.18474 30.1035 3.43191 30.204 3.68925 30.204C3.94659 30.204 4.19376 30.1035 4.37809 29.924C4.56242 29.7444 4.66934 29.5 4.67607 29.2427V24.1143C4.67607 23.9351 4.74726 23.7633 4.87398 23.6366C5.00069 23.5098 5.17255 23.4387 5.35175 23.4387C5.53095 23.4387 5.70281 23.5098 5.82953 23.6366C5.95624 23.7633 6.02743 23.9351 6.02743 24.1143V29.2427C6.017 29.8559 5.76607 30.4405 5.32872 30.8705C4.89136 31.3005 4.30258 31.5415 3.68925 31.5415C3.07592 31.5415 2.48714 31.3005 2.04978 30.8705C1.61243 30.4405 1.3615 29.8559 1.35107 29.2427V20.9691C1.35233 19.898 1.77836 18.8712 2.53571 18.1138C3.29306 17.3565 4.31988 16.9305 5.39094 16.9292H13.5274C14.5985 16.9305 15.6253 17.3565 16.3827 18.1138C17.14 18.8712 17.566 19.898 17.5673 20.9691V29.2427C17.5666 29.8625 17.32 30.4567 16.8818 30.895C16.4435 31.3333 15.8493 31.5798 15.2295 31.5805Z" fill="#5978A9"/>
<path d="M11.5134 43.1081C10.7891 43.1074 10.0947 42.8191 9.58281 42.3066C9.07094 41.7941 8.78351 41.0993 8.78369 40.375V31.0324C8.78369 30.8532 8.85488 30.6813 8.98159 30.5546C9.10831 30.4279 9.28017 30.3567 9.45937 30.3567C9.63857 30.3567 9.81043 30.4279 9.93714 30.5546C10.0639 30.6813 10.135 30.8532 10.135 31.0324V40.375C10.131 40.5585 10.1636 40.741 10.231 40.9117C10.2985 41.0825 10.3993 41.2381 10.5277 41.3693C10.6561 41.5005 10.8093 41.6048 10.9786 41.676C11.1478 41.7472 11.3295 41.7839 11.5131 41.7839C11.6967 41.7839 11.8784 41.7472 12.0476 41.676C12.2168 41.6048 12.3701 41.5005 12.4985 41.3693C12.6268 41.2381 12.7277 41.0825 12.7951 40.9117C12.8625 40.741 12.8952 40.5585 12.8911 40.375V24.1142C12.8911 23.935 12.9623 23.7631 13.089 23.6364C13.2157 23.5097 13.3876 23.4385 13.5668 23.4385C13.746 23.4385 13.9179 23.5097 14.0446 23.6364C14.1713 23.7631 14.2425 23.935 14.2425 24.1142V40.375C14.2427 41.0992 13.9553 41.7938 13.4436 42.3063C12.9319 42.8188 12.2376 43.1072 11.5134 43.1081V43.1081Z" fill="#5978A9"/>
<path d="M9.45939 15.4056C8.61749 15.4056 7.79449 15.1559 7.09447 14.6882C6.39445 14.2205 5.84885 13.5557 5.52666 12.7778C5.20448 12 5.12018 11.1441 5.28443 10.3184C5.44868 9.49266 5.8541 8.73418 6.44941 8.13887C7.04473 7.54355 7.80321 7.13813 8.62894 6.97388C9.45467 6.80964 10.3106 6.89393 11.0884 7.21612C11.8662 7.5383 12.531 8.0839 12.9988 8.78392C13.4665 9.48394 13.7161 10.3069 13.7161 11.1488C13.7151 12.2775 13.2662 13.3596 12.4682 14.1576C11.6701 14.9557 10.588 15.4045 9.45939 15.4056V15.4056ZM9.45939 8.24344C8.88476 8.24344 8.32303 8.41384 7.84524 8.73309C7.36745 9.05234 6.99505 9.5061 6.77515 10.037C6.55525 10.5679 6.49771 11.1521 6.60982 11.7157C6.72192 12.2793 6.99863 12.7969 7.40496 13.2033C7.81129 13.6096 8.32898 13.8863 8.89258 13.9984C9.45617 14.1105 10.0403 14.053 10.5712 13.8331C11.1021 13.6132 11.5559 13.2408 11.8751 12.763C12.1944 12.2852 12.3648 11.7235 12.3648 11.1488C12.3639 10.3789 12.0574 9.64074 11.5126 9.0966C10.9679 8.55246 10.2294 8.24682 9.45939 8.24682V8.24344Z" fill="#5978A9"/>
<path d="M32.7699 10.135H17.2294C17.0502 10.135 16.8783 10.0639 16.7516 9.93714C16.6249 9.81043 16.5537 9.63857 16.5537 9.45937C16.5537 9.28017 16.6249 9.10831 16.7516 8.98159C16.8783 8.85488 17.0502 8.78369 17.2294 8.78369H32.7699C32.9491 8.78369 33.121 8.85488 33.2477 8.98159C33.3744 9.10831 33.4456 9.28017 33.4456 9.45937C33.4456 9.63857 33.3744 9.81043 33.2477 9.93714C33.121 10.0639 32.9491 10.135 32.7699 10.135Z" fill="#5978A9"/>
<path d="M31.1862 11.9934C31.0573 11.9929 30.9312 11.9555 30.8228 11.8857C30.7144 11.8158 30.6283 11.7164 30.5746 11.5992C30.5209 11.482 30.5018 11.3518 30.5197 11.2241C30.5376 11.0964 30.5916 10.9765 30.6754 10.8785L31.8821 9.45962L30.6754 8.04071C30.5589 7.90433 30.5014 7.72728 30.5154 7.54848C30.5295 7.36969 30.614 7.20381 30.7504 7.08733C30.8868 6.97085 31.0638 6.91331 31.2426 6.92738C31.4214 6.94144 31.5873 7.02596 31.7038 7.16233L33.2875 9.02044C33.3922 9.14282 33.4497 9.29857 33.4497 9.45962C33.4497 9.62067 33.3922 9.77643 33.2875 9.89881L31.7004 11.7569C31.6371 11.8314 31.5582 11.8911 31.4694 11.932C31.3806 11.9728 31.284 11.9938 31.1862 11.9934V11.9934Z" fill="#5978A9"/>
<path d="M18.8134 11.9933C18.7155 11.9935 18.6188 11.9723 18.53 11.9312C18.4412 11.8902 18.3624 11.8302 18.2992 11.7555L16.7154 9.89735C16.6107 9.77496 16.5532 9.61921 16.5532 9.45816C16.5532 9.29711 16.6107 9.14136 16.7154 9.01897L18.2992 7.16086C18.3569 7.09334 18.4273 7.03783 18.5064 6.99752C18.5855 6.95721 18.6718 6.93288 18.7604 6.92591C18.8489 6.91895 18.9379 6.92949 19.0224 6.95693C19.1068 6.98438 19.1851 7.02819 19.2526 7.08586C19.3201 7.14354 19.3756 7.21395 19.4159 7.29307C19.4562 7.3722 19.4806 7.45849 19.4875 7.54702C19.4945 7.63555 19.484 7.72458 19.4565 7.80904C19.4291 7.89349 19.3853 7.97172 19.3276 8.03924L18.1175 9.45951L19.3276 10.8784C19.4112 10.9767 19.4649 11.0968 19.4824 11.2245C19.4999 11.3523 19.4805 11.4824 19.4264 11.5995C19.3723 11.7166 19.2859 11.8158 19.1773 11.8853C19.0686 11.9549 18.9424 11.9919 18.8134 11.9919V11.9933Z" fill="#5978A9"/>
</svg>
