<svg width="50" height="50" viewBox="0 0 50 50" fill="none" xmlns="http://www.w3.org/2000/svg">
<path d="M46.3672 15.625H48.4375V17.1875H46.0938C45.9165 17.1875 45.7445 17.1272 45.6061 17.0166L45.1637 16.6631C42.9211 14.8689 40.4529 13.3765 37.8223 12.2241L30.9521 9.49951C30.9439 9.49629 30.9357 9.49287 30.9275 9.48975C30.6196 9.35512 30.2728 9.33936 29.9539 9.4455C29.6351 9.55165 29.3669 9.77216 29.2011 10.0645C29.0353 10.3568 28.9838 10.7001 29.0563 11.0283C29.1289 11.3564 29.3205 11.646 29.594 11.8411L35.5833 15.7524C35.67 15.8091 35.7446 15.8824 35.8026 15.9681C35.8607 16.0539 35.9012 16.1503 35.9216 16.2519V16.2519C36.2346 17.5294 36.7959 18.7329 37.5736 19.7937C39.2115 21.9888 41.5265 22.9529 44.453 22.6605L44.6085 24.2152C44.2104 24.2551 43.8271 24.2746 43.4588 24.2738C39.7544 24.2738 37.5287 22.3669 36.2847 20.6784C35.5166 19.6198 34.9317 18.4398 34.5542 17.1875H21.3867V15.625H32.5311L28.7281 13.1414C28.7211 13.1368 28.714 13.1321 28.7071 13.1272C28.3863 12.9025 28.114 12.6156 27.9063 12.2836C27.6986 11.9515 27.5598 11.5811 27.4981 11.1943C27.4364 10.8076 27.4532 10.4123 27.5473 10.0321C27.6414 9.65196 27.811 9.29458 28.046 8.98125C28.4393 8.4564 28.9979 8.07926 29.6317 7.91064C30.2655 7.74202 30.9376 7.79173 31.5397 8.05176L38.411 10.7764C38.4195 10.7797 38.4279 10.7832 38.4362 10.7868C41.1968 11.9946 43.7867 13.5599 46.1396 15.4424L46.3672 15.625ZM17.334 10.9375L20.6224 26.7219L22.1521 26.4031L18.7489 10.0704C18.7238 7.8071 17.8077 5.64487 16.1993 4.05232C14.5909 2.45978 12.4197 1.56521 10.1562 1.5625H1.5625V3.125H10.1562C11.8852 3.1272 13.5529 3.7654 14.8416 4.91799C16.1304 6.07058 16.95 7.65701 17.1444 9.375H12.4011C12.227 8.70461 11.8355 8.11088 11.288 7.68677C10.7404 7.26266 10.0676 7.03212 9.375 7.03125H1.5625V8.59375H9.375C9.77833 8.59439 10.1658 8.7509 10.4564 9.03057C10.747 9.31025 10.9183 9.69143 10.9344 10.0944L7.04639 29.5343L8.57861 29.8407L12.3593 10.9375H17.334ZM39.8896 27.9424C37.5367 26.0603 34.9469 24.4953 32.1865 23.2874C32.1808 23.285 32.1751 23.2824 32.1692 23.2802L28.7367 21.875H30.4688V20.3125H22.8841V21.875H23.5437C23.4942 21.9314 23.446 21.9894 23.4002 22.0503C23.1661 22.3625 22.9969 22.7185 22.9026 23.0971C22.8083 23.4758 22.7909 23.8695 22.8513 24.2551C22.9117 24.6406 23.0487 25.0101 23.2543 25.3418C23.4598 25.6735 23.7298 25.9607 24.0481 26.1863L26.5918 28.125H12.5C11.9049 28.1247 11.3221 28.2944 10.8202 28.6142C10.3183 28.9339 9.91817 29.3904 9.66696 29.9299C9.41574 30.4694 9.32387 31.0694 9.40216 31.6594C9.48046 32.2493 9.72565 32.8046 10.1089 33.2599C9.52332 33.6118 9.06923 34.1459 8.81613 34.7804C8.56303 35.415 8.52488 36.115 8.70752 36.7733C8.89015 37.4316 9.28351 38.0119 9.82736 38.4253C10.3712 38.8388 11.0356 39.0626 11.7188 39.0625H24.2188V37.5H11.7188C11.3043 37.5 10.9069 37.3354 10.6139 37.0424C10.3209 36.7493 10.1562 36.3519 10.1562 35.9375C10.1562 35.5231 10.3209 35.1257 10.6139 34.8326C10.9069 34.5396 11.3043 34.375 11.7188 34.375H24.2188V32.8125H12.5C12.0856 32.8125 11.6882 32.6479 11.3951 32.3549C11.1021 32.0618 10.9375 31.6644 10.9375 31.25C10.9375 30.8356 11.1021 30.4382 11.3951 30.1451C11.6882 29.8521 12.0856 29.6875 12.5 29.6875H28.9062C29.0697 29.6875 29.2291 29.6362 29.3618 29.5409C29.4946 29.4456 29.5942 29.311 29.6465 29.1561C29.6987 29.0013 29.7011 28.8339 29.6533 28.6776C29.6055 28.5213 29.5098 28.3839 29.3798 28.2849L24.9836 24.9348C24.9752 24.9284 24.9667 24.9222 24.9581 24.9162C24.6825 24.7227 24.4887 24.4337 24.4141 24.1054C24.3394 23.777 24.3894 23.4326 24.5542 23.139C24.7191 22.8454 24.9871 22.6235 25.3063 22.5162C25.6255 22.409 25.9731 22.4241 26.2818 22.5586C26.2876 22.561 26.2933 22.5636 26.2991 22.5658L31.5688 24.7229C34.2006 25.8755 36.6698 27.3682 38.9135 29.1629C39.1899 29.3837 39.4629 29.6875 39.8438 29.6875H48.4375V28.125H40.1179L39.8896 27.9424ZM40.2756 43.8325C38.4461 44.7473 33.774 46.875 29.9154 46.875H15.625C15.2106 46.875 14.8132 46.7104 14.5201 46.4174C14.2271 46.1243 14.0625 45.7269 14.0625 45.3125C14.0625 44.8981 14.2271 44.5007 14.5201 44.2076C14.8132 43.9146 15.2106 43.75 15.625 43.75H24.2188V42.1875H13.2812C12.867 42.187 12.4699 42.0222 12.1769 41.7293C11.884 41.4364 11.7192 41.0393 11.7188 40.625H10.1562C10.1571 41.3929 10.4403 42.1336 10.9519 42.7063C11.4635 43.2789 12.1678 43.6434 12.9308 43.7305C12.6518 44.2051 12.5032 44.745 12.5 45.2955C12.4969 45.846 12.6392 46.3876 12.9127 46.8654C13.1862 47.3432 13.5811 47.7402 14.0574 48.0163C14.5337 48.2924 15.0745 48.4377 15.625 48.4375H29.9154C31.6325 48.4375 35.3188 48.0289 40.8086 45.3125H48.4375V43.75H40.625C40.5037 43.75 40.3841 43.7782 40.2756 43.8325V43.8325ZM14.1589 24.5552L14.7448 14.0083L13.1849 13.9218L12.5989 24.4687L14.1589 24.5552ZM15.7251 18.1294L16.4087 26.6255L17.9663 26.5001L17.2827 18.004L15.7251 18.1294ZM7.03125 32.8125C7.03125 33.276 6.89379 33.7292 6.63626 34.1146C6.37872 34.5 6.01268 34.8004 5.58441 34.9778C5.15615 35.1552 4.6849 35.2016 4.23026 35.1112C3.77561 35.0208 3.358 34.7976 3.03022 34.4698C2.70244 34.142 2.47922 33.7244 2.38878 33.2697C2.29835 32.8151 2.34476 32.3439 2.52216 31.9156C2.69955 31.4873 2.99995 31.1213 3.38538 30.8637C3.77081 30.6062 4.22395 30.4688 4.6875 30.4688C5.30888 30.4695 5.9046 30.7166 6.34398 31.156C6.78336 31.5954 7.03053 32.1911 7.03125 32.8125ZM5.46875 32.8125C5.46875 32.658 5.42293 32.5069 5.33709 32.3785C5.25124 32.25 5.12923 32.1499 4.98647 32.0907C4.84372 32.0316 4.68663 32.0161 4.53509 32.0463C4.38354 32.0764 4.24433 32.1508 4.13507 32.2601C4.02581 32.3693 3.95141 32.5085 3.92126 32.6601C3.89112 32.8116 3.90659 32.9687 3.96572 33.1115C4.02485 33.2542 4.12498 33.3762 4.25346 33.4621C4.38194 33.5479 4.53298 33.5938 4.6875 33.5938C4.89463 33.5935 5.09321 33.5111 5.23967 33.3647C5.38613 33.2182 5.46852 33.0196 5.46875 32.8125V32.8125ZM22.6562 14.0625C22.1927 14.0625 21.7396 13.925 21.3541 13.6675C20.9687 13.41 20.6683 13.0439 20.4909 12.6157C20.3135 12.1874 20.2671 11.7162 20.3575 11.2615C20.448 10.8069 20.6712 10.3892 20.999 10.0615C21.3267 9.73369 21.7444 9.51047 22.199 9.42003C22.6536 9.3296 23.1249 9.37601 23.5532 9.55341C23.9814 9.7308 24.3475 10.0312 24.605 10.4166C24.8625 10.8021 25 11.2552 25 11.7188C24.9993 12.3401 24.7521 12.9359 24.3127 13.3752C23.8734 13.8146 23.2776 14.0618 22.6562 14.0625V14.0625ZM22.6562 12.5C22.8108 12.5 22.9618 12.4542 23.0903 12.3683C23.2188 12.2825 23.3189 12.1605 23.378 12.0177C23.4372 11.875 23.4526 11.7179 23.4225 11.5663C23.3923 11.4148 23.3179 11.2756 23.2087 11.1663C23.0994 11.0571 22.9602 10.9827 22.8087 10.9525C22.6571 10.9224 22.5 10.9378 22.3573 10.997C22.2145 11.0561 22.0925 11.1562 22.0067 11.2847C21.9208 11.4132 21.875 11.5642 21.875 11.7188C21.8752 11.9259 21.9576 12.1245 22.1041 12.2709C22.2505 12.4174 22.4491 12.4998 22.6562 12.5ZM30.4688 40.625C30.0052 40.625 29.5521 40.4875 29.1666 40.23C28.7812 39.9725 28.4808 39.6064 28.3034 39.1782C28.126 38.7499 28.0796 38.2787 28.17 37.824C28.2605 37.3694 28.4837 36.9517 28.8115 36.624C29.1392 36.2962 29.5569 36.073 30.0115 35.9825C30.4662 35.8921 30.9374 35.9385 31.3657 36.1159C31.7939 36.2933 32.16 36.5937 32.4175 36.9791C32.675 37.3646 32.8125 37.8177 32.8125 38.2812C32.8118 38.9026 32.5646 39.4984 32.1252 39.9377C31.6859 40.3771 31.0901 40.6243 30.4688 40.625V40.625ZM30.4688 39.0625C30.6233 39.0625 30.7743 39.0167 30.9028 38.9308C31.0313 38.845 31.1314 38.723 31.1905 38.5802C31.2497 38.4375 31.2651 38.2804 31.235 38.1288C31.2048 37.9773 31.1304 37.8381 31.0212 37.7288C30.9119 37.6196 30.7727 37.5452 30.6212 37.515C30.4696 37.4849 30.3125 37.5003 30.1698 37.5595C30.027 37.6186 29.905 37.7187 29.8192 37.8472C29.7333 37.9757 29.6875 38.1267 29.6875 38.2812C29.6877 38.4884 29.7701 38.687 29.9166 38.8334C30.063 38.9799 30.2616 39.0623 30.4688 39.0625Z" fill="#5978A9"/>
</svg>
