<svg width="48" height="48" viewBox="0 0 48 48" fill="none" xmlns="http://www.w3.org/2000/svg">
<g clip-path="url(#clip0_60447_1862)">
<path d="M22.6738 15.0624H22.695C23.4284 15.0624 24.1244 14.7713 24.6558 14.242C25.1926 13.7073 25.5005 12.9719 25.5005 12.2245C25.5005 11.2165 24.9009 10.258 24.5436 9.77644C24.0904 9.16556 23.4005 8.4375 22.688 8.4375C21.9754 8.4375 21.2856 9.16566 20.8324 9.77644C20.475 10.258 19.8755 11.2165 19.8755 12.2245C19.8755 12.9719 20.1834 13.7072 20.7202 14.242C21.2515 14.7713 21.9474 15.0624 22.6738 15.0624V15.0624ZM22.6879 10.4754C23.0793 10.8742 23.6254 11.6799 23.6254 12.2245C23.6254 12.477 23.5186 12.7282 23.3324 12.9137C23.155 13.0903 22.9287 13.1874 22.6877 13.1874C22.6866 13.1874 22.6854 13.1874 22.6843 13.1874C22.6832 13.1874 22.6822 13.1874 22.681 13.1874C22.447 13.1874 22.2206 13.0903 22.0433 12.9137C21.8571 12.7282 21.7503 12.477 21.7503 12.2245C21.7503 11.6798 22.2964 10.8742 22.6879 10.4754V10.4754Z" fill="#5978A9"/>
<path d="M47.3669 13.9085C47.1991 13.6199 46.8904 13.4423 46.5565 13.4423C46.5429 13.4423 45.1874 13.3429 45.1874 12.5048C45.1874 11.9871 44.7676 11.5673 44.2499 11.5673V10.6298C44.2499 9.07903 42.9882 7.81745 41.4375 7.81735V5.62605V5.62595H42.375C42.8927 5.62595 43.3125 5.20624 43.3125 4.68846V0.938473C43.3125 0.420694 42.8927 0.000976562 42.375 0.000976562H24.5625C23.3127 0.000976562 22.1363 0.489225 21.2498 1.37572C20.3633 2.26222 19.875 3.43868 19.875 4.68846V6.56345C19.875 7.08123 20.2947 7.50095 20.8125 7.50095H24.5625C25.0802 7.50095 25.5 7.08123 25.5 6.56345V5.62595H35.8124V5.62605V7.81735C34.2616 7.81735 33 9.07903 33 10.6298V11.5673C32.4823 11.5673 32.0625 11.9871 32.0625 12.5048C32.0625 13.343 30.7072 13.4423 30.6934 13.4423C30.3596 13.4423 30.051 13.6198 29.8831 13.9083C29.4689 14.6202 29.2499 15.4316 29.2499 16.2547V17.9323L26.4423 18.8379C26.2087 17.5679 25.0998 16.3323 23.2429 16.2572L21.1385 16.172C20.6201 16.1495 20.1848 16.5535 20.1639 17.0708C20.1429 17.5882 20.5453 18.0245 21.0626 18.0454L23.167 18.1306C24.1532 18.1705 24.6082 18.7817 24.6137 19.3326C24.6197 19.9463 24.1068 20.344 23.2414 20.3962L16.3157 20.8147C15.7989 20.8459 15.4052 21.2902 15.4364 21.807C15.4677 22.3239 15.912 22.717 16.4288 22.6863L23.3544 22.2678C24.6158 22.1916 25.4735 21.6567 25.9684 20.9609L36.0521 17.7084C37.0944 17.4319 38.8874 17.164 39.3674 18.4018C39.4084 18.5227 39.3195 18.639 39.1034 18.7474L26.5835 24.7667C24.4602 25.5341 19.7595 25.8489 15.978 26.1021C14.3036 26.2142 12.722 26.3202 11.526 26.4525C11.439 26.4622 11.3536 26.4839 11.2726 26.5172L1.87499 30.3806V22.5021H5.68638C6.20416 22.5021 6.62388 22.0824 6.62388 21.5646C6.62388 20.4751 7.07716 19.415 7.86766 18.6559C8.605 17.9477 9.55121 17.5801 10.529 17.6192L12.6328 17.7044C13.15 17.7257 13.5865 17.323 13.6074 16.8056C13.6283 16.2882 13.2259 15.8519 12.7086 15.831L10.6049 15.7458C9.11096 15.6845 7.67781 16.2385 6.56894 17.3036C5.64063 18.1952 5.02995 19.3716 4.82511 20.6271H0.937496C0.419717 20.6271 0 21.0468 0 21.5646V31.7797C0 32.0923 0.155906 32.3844 0.415592 32.5585C0.572248 32.6635 0.75431 32.7172 0.93759 32.7172C1.05815 32.7172 1.17918 32.6939 1.29393 32.6468L11.8625 28.302C13.0038 28.1804 14.511 28.0795 16.1033 27.9729C20.2338 27.6963 24.9155 27.3828 27.2736 26.5107C27.301 26.5005 27.3281 26.4891 27.3545 26.4763L29.2501 25.5651V45.1883C29.2501 46.7391 30.5118 48.0008 32.0626 48.0008H45.1875C46.7383 48.0008 48 46.7391 48 45.1883V16.2548C48 15.4317 47.7811 14.6204 47.3669 13.9085V13.9085ZM24.5626 3.75096C24.0448 3.75096 23.6251 4.17068 23.6251 4.68846V5.62595H21.7501V4.68846C21.7501 3.93949 22.0433 3.23384 22.5757 2.70153C23.108 2.16912 23.8136 1.87597 24.5625 1.87597H41.4376V3.75096H24.5626ZM39.5626 5.62595C39.5626 5.62595 39.5626 5.62605 39.5626 5.62595V7.81735H37.6874V5.62605V5.62595H39.5626ZM34.8751 11.5673V10.6298C34.8751 10.1129 35.2956 9.69234 35.8125 9.69234H41.4375C41.9545 9.69234 42.375 10.1129 42.375 10.6298V11.5673H34.8751ZM35.5447 15.9033C35.5296 15.9073 35.5145 15.9118 35.4997 15.9166L31.1252 17.3276V16.2548C31.1252 15.9146 31.1877 15.5778 31.3082 15.2615C32.2922 15.0873 33.3653 14.501 33.7704 13.4423H43.4799C43.8849 14.501 44.958 15.0872 45.9421 15.2615C46.0626 15.5778 46.1251 15.9146 46.1251 16.2548V20.4089H46.125H39.9719C41.2229 19.7651 41.4446 18.5712 41.1164 17.7257C40.3763 15.8169 38.3455 15.1524 35.5447 15.9033V15.9033ZM36.0754 22.2838H46.1249H46.125V37.2843H46.1249H31.1251V24.6637L36.0754 22.2838ZM45.1875 46.1258H32.0626C31.5456 46.1258 31.1251 45.7052 31.1251 45.1883V39.1593H46.1249H46.125V45.1883C46.125 45.7052 45.7044 46.1258 45.1875 46.1258Z" fill="#5978A9"/>
<path d="M33.9375 32.5957H35.8125V34.4707C35.8125 34.9885 36.2323 35.4082 36.75 35.4082H40.5C41.0177 35.4082 41.4375 34.9885 41.4375 34.4707V32.5957H43.3125C43.8302 32.5957 44.25 32.176 44.25 31.6582V27.9082C44.25 27.3904 43.8302 26.9707 43.3125 26.9707H41.4375V25.0957C41.4375 24.5779 41.0177 24.1582 40.5 24.1582H36.75C36.2323 24.1582 35.8125 24.5779 35.8125 25.0957V26.9707H33.9375C33.4198 26.9707 33 27.3904 33 27.9082V31.6582C33 32.176 33.4197 32.5957 33.9375 32.5957ZM34.875 28.8458H36.75C37.2677 28.8458 37.6875 28.4261 37.6875 27.9083V26.0333H39.5625V27.9083C39.5625 28.4261 39.9823 28.8458 40.5 28.8458H42.375V30.7208H40.5C39.9823 30.7208 39.5625 31.1405 39.5625 31.6583V33.5333H37.6875V31.6583C37.6875 31.1405 37.2677 30.7208 36.75 30.7208H34.875V28.8458Z" fill="#5978A9"/>
<path d="M16.886 17.875C17.4038 17.875 17.8235 17.4553 17.8235 16.9375C17.8235 16.4197 17.4038 16 16.886 16H16.8854C16.3676 16 15.9482 16.4197 15.9482 16.9375C15.9482 17.4553 16.3682 17.875 16.886 17.875V17.875Z" fill="#5978A9"/>
</g>
<defs>
<clipPath id="clip0_60447_1862">
<rect width="48" height="48" fill="white"/>
</clipPath>
</defs>
</svg>
